<mxfile host="app.diagrams.net" modified="2021-04-15T20:20:29.227Z" agent="5.0 (Windows NT 10.0; WOW64) AppleWebKit/537.36 (KHTML, like Gecko) Chrome/74.0.3713.0 Safari/537.36" etag="psq-s4816VgvXcBGaWqz" version="14.6.0" type="github" pages="2">
  <diagram id="NG-NqlVeo0lOnMDjyPiG" name="Page-1">
    <mxGraphModel dx="1865" dy="1717" grid="1" gridSize="10" guides="1" tooltips="1" connect="1" arrows="1" fold="1" page="1" pageScale="1" pageWidth="827" pageHeight="1169" math="0" shadow="0">
      <root>
        <mxCell id="6tsjVSAMrTK1Vd30kNC8-0" />
        <mxCell id="6tsjVSAMrTK1Vd30kNC8-1" parent="6tsjVSAMrTK1Vd30kNC8-0" />
        <mxCell id="j01ybcQ40wNmj2fIsmN0-5" style="edgeStyle=orthogonalEdgeStyle;rounded=0;orthogonalLoop=1;jettySize=auto;html=1;entryX=0.5;entryY=0;entryDx=0;entryDy=0;strokeWidth=4;" parent="6tsjVSAMrTK1Vd30kNC8-1" source="j01ybcQ40wNmj2fIsmN0-0" target="j01ybcQ40wNmj2fIsmN0-2" edge="1">
          <mxGeometry relative="1" as="geometry" />
        </mxCell>
        <mxCell id="j01ybcQ40wNmj2fIsmN0-0" value="&lt;font style=&quot;font-size: 24px&quot;&gt;&lt;b&gt;NEW&lt;/b&gt;&lt;/font&gt;" style="ellipse;whiteSpace=wrap;html=1;strokeWidth=2;fillColor=#d5e8d4;strokeColor=#82b366;" parent="6tsjVSAMrTK1Vd30kNC8-1" vertex="1">
          <mxGeometry x="314" y="-30" width="100" height="90" as="geometry" />
        </mxCell>
        <mxCell id="j01ybcQ40wNmj2fIsmN0-6" style="edgeStyle=orthogonalEdgeStyle;rounded=0;orthogonalLoop=1;jettySize=auto;html=1;entryX=0.5;entryY=0;entryDx=0;entryDy=0;strokeWidth=4;" parent="6tsjVSAMrTK1Vd30kNC8-1" source="j01ybcQ40wNmj2fIsmN0-2" target="j01ybcQ40wNmj2fIsmN0-4" edge="1">
          <mxGeometry relative="1" as="geometry" />
        </mxCell>
        <mxCell id="j01ybcQ40wNmj2fIsmN0-4" value="&lt;b style=&quot;font-size: 18px&quot;&gt;TERMINATED&lt;/b&gt;" style="ellipse;whiteSpace=wrap;html=1;aspect=fixed;strokeWidth=2;fillColor=#d5e8d4;strokeColor=#82b366;" parent="6tsjVSAMrTK1Vd30kNC8-1" vertex="1">
          <mxGeometry x="299" y="730" width="130" height="130" as="geometry" />
        </mxCell>
        <mxCell id="j01ybcQ40wNmj2fIsmN0-8" value="&lt;font style=&quot;font-size: 18px&quot;&gt;&lt;b&gt;BLOCKED&lt;/b&gt;&lt;/font&gt;" style="rounded=1;whiteSpace=wrap;html=1;strokeWidth=2;strokeColor=#36393d;fillColor=#FF6738;" parent="6tsjVSAMrTK1Vd30kNC8-1" vertex="1">
          <mxGeometry x="-70" y="130" width="150" height="110" as="geometry" />
        </mxCell>
        <mxCell id="j01ybcQ40wNmj2fIsmN0-9" value="&lt;font style=&quot;font-size: 18px&quot;&gt;&lt;b&gt;WAITING&lt;/b&gt;&lt;/font&gt;" style="rounded=1;whiteSpace=wrap;html=1;strokeWidth=2;fillColor=#FF6738;" parent="6tsjVSAMrTK1Vd30kNC8-1" vertex="1">
          <mxGeometry x="640" y="530" width="170" height="110" as="geometry" />
        </mxCell>
        <mxCell id="j01ybcQ40wNmj2fIsmN0-10" value="&lt;font style=&quot;font-size: 18px&quot;&gt;&lt;b&gt;TIMED_WAITING&lt;/b&gt;&lt;/font&gt;" style="rounded=1;whiteSpace=wrap;html=1;strokeWidth=2;fillColor=#FF6738;" parent="6tsjVSAMrTK1Vd30kNC8-1" vertex="1">
          <mxGeometry x="640" y="110" width="165" height="100" as="geometry" />
        </mxCell>
        <mxCell id="j01ybcQ40wNmj2fIsmN0-15" value="" style="curved=1;endArrow=classic;html=1;strokeWidth=4;startArrow=none;" parent="6tsjVSAMrTK1Vd30kNC8-1" source="j01ybcQ40wNmj2fIsmN0-2" edge="1">
          <mxGeometry width="50" height="50" relative="1" as="geometry">
            <mxPoint x="390" y="410" as="sourcePoint" />
            <mxPoint x="440" y="360" as="targetPoint" />
            <Array as="points">
              <mxPoint x="390" y="360" />
            </Array>
          </mxGeometry>
        </mxCell>
        <mxCell id="j01ybcQ40wNmj2fIsmN0-2" value="&lt;font style=&quot;font-size: 18px&quot;&gt;&lt;b&gt;RUNNABLE&lt;/b&gt;&lt;/font&gt;" style="rounded=1;whiteSpace=wrap;html=1;strokeWidth=2;fillColor=#d5e8d4;strokeColor=#82b366;" parent="6tsjVSAMrTK1Vd30kNC8-1" vertex="1">
          <mxGeometry x="274" y="330" width="180" height="110" as="geometry" />
        </mxCell>
        <mxCell id="j01ybcQ40wNmj2fIsmN0-26" value="" style="edgeStyle=segmentEdgeStyle;endArrow=classic;html=1;strokeWidth=4;exitX=0.001;exitY=0.627;exitDx=0;exitDy=0;exitPerimeter=0;entryX=0.38;entryY=1.027;entryDx=0;entryDy=0;entryPerimeter=0;strokeColor=#FF0000;" parent="6tsjVSAMrTK1Vd30kNC8-1" source="j01ybcQ40wNmj2fIsmN0-2" target="j01ybcQ40wNmj2fIsmN0-8" edge="1">
          <mxGeometry width="50" height="50" relative="1" as="geometry">
            <mxPoint x="220" y="380" as="sourcePoint" />
            <mxPoint x="-10" y="280" as="targetPoint" />
            <Array as="points">
              <mxPoint x="-13" y="399" />
            </Array>
          </mxGeometry>
        </mxCell>
        <mxCell id="j01ybcQ40wNmj2fIsmN0-32" value="" style="edgeStyle=segmentEdgeStyle;endArrow=classic;html=1;strokeWidth=4;entryX=0.25;entryY=0;entryDx=0;entryDy=0;strokeColor=#0000FF;" parent="6tsjVSAMrTK1Vd30kNC8-1" target="j01ybcQ40wNmj2fIsmN0-2" edge="1">
          <mxGeometry width="50" height="50" relative="1" as="geometry">
            <mxPoint x="80" y="180" as="sourcePoint" />
            <mxPoint x="250" y="250" as="targetPoint" />
            <Array as="points">
              <mxPoint x="319" y="180" />
            </Array>
          </mxGeometry>
        </mxCell>
        <mxCell id="j01ybcQ40wNmj2fIsmN0-33" value="&lt;font style=&quot;font-size: 18px&quot;&gt;&lt;b&gt;没有获得锁&lt;/b&gt;&lt;/font&gt;" style="text;html=1;strokeColor=none;fillColor=none;align=center;verticalAlign=middle;whiteSpace=wrap;rounded=0;" parent="6tsjVSAMrTK1Vd30kNC8-1" vertex="1">
          <mxGeometry y="350" width="140" height="40" as="geometry" />
        </mxCell>
        <mxCell id="j01ybcQ40wNmj2fIsmN0-34" value="&lt;font style=&quot;font-size: 18px&quot;&gt;&lt;b&gt;获得锁&lt;/b&gt;&lt;/font&gt;" style="text;html=1;strokeColor=none;fillColor=none;align=center;verticalAlign=middle;whiteSpace=wrap;rounded=0;" parent="6tsjVSAMrTK1Vd30kNC8-1" vertex="1">
          <mxGeometry x="90" y="140" width="140" height="40" as="geometry" />
        </mxCell>
        <mxCell id="j01ybcQ40wNmj2fIsmN0-39" value="" style="edgeStyle=segmentEdgeStyle;endArrow=classic;html=1;strokeColor=#FF0000;strokeWidth=4;entryX=0.453;entryY=1.03;entryDx=0;entryDy=0;entryPerimeter=0;exitX=1;exitY=0.25;exitDx=0;exitDy=0;" parent="6tsjVSAMrTK1Vd30kNC8-1" source="j01ybcQ40wNmj2fIsmN0-2" target="j01ybcQ40wNmj2fIsmN0-10" edge="1">
          <mxGeometry width="50" height="50" relative="1" as="geometry">
            <mxPoint x="460" y="360" as="sourcePoint" />
            <mxPoint x="680" y="230" as="targetPoint" />
            <Array as="points">
              <mxPoint x="454" y="360" />
              <mxPoint x="715" y="360" />
            </Array>
          </mxGeometry>
        </mxCell>
        <mxCell id="j01ybcQ40wNmj2fIsmN0-40" value="&lt;ol&gt;&lt;li&gt;&lt;font style=&quot;font-size: 14px&quot;&gt;&lt;b&gt;sleep(time)&lt;/b&gt;&lt;/font&gt;&lt;/li&gt;&lt;li&gt;&lt;font size=&quot;3&quot;&gt;&lt;b&gt;wait(time)&lt;/b&gt;&lt;/font&gt;&lt;/li&gt;&lt;li&gt;&lt;font size=&quot;3&quot;&gt;&lt;b&gt;join(time)&lt;/b&gt;&lt;/font&gt;&lt;/li&gt;&lt;/ol&gt;" style="text;strokeColor=none;fillColor=none;html=1;whiteSpace=wrap;verticalAlign=middle;overflow=hidden;" parent="6tsjVSAMrTK1Vd30kNC8-1" vertex="1">
          <mxGeometry x="530" y="280" width="140" height="80" as="geometry" />
        </mxCell>
        <mxCell id="j01ybcQ40wNmj2fIsmN0-41" value="" style="edgeStyle=segmentEdgeStyle;endArrow=classic;html=1;strokeWidth=4;strokeColor=#0000FF;exitX=0;exitY=0.5;exitDx=0;exitDy=0;entryX=0.75;entryY=0;entryDx=0;entryDy=0;" parent="6tsjVSAMrTK1Vd30kNC8-1" source="j01ybcQ40wNmj2fIsmN0-10" target="j01ybcQ40wNmj2fIsmN0-2" edge="1">
          <mxGeometry width="50" height="50" relative="1" as="geometry">
            <mxPoint x="630" y="160" as="sourcePoint" />
            <mxPoint x="539" y="310" as="targetPoint" />
            <Array as="points">
              <mxPoint x="409" y="160" />
            </Array>
          </mxGeometry>
        </mxCell>
        <mxCell id="j01ybcQ40wNmj2fIsmN0-42" value="&lt;span style=&quot;font-size: 18px&quot;&gt;&lt;b&gt;时间超时&lt;/b&gt;&lt;/span&gt;" style="text;html=1;strokeColor=none;fillColor=none;align=center;verticalAlign=middle;whiteSpace=wrap;rounded=0;" parent="6tsjVSAMrTK1Vd30kNC8-1" vertex="1">
          <mxGeometry x="480" y="100" width="140" height="80" as="geometry" />
        </mxCell>
        <mxCell id="j01ybcQ40wNmj2fIsmN0-43" value="" style="edgeStyle=segmentEdgeStyle;endArrow=classic;html=1;strokeColor=#FF0000;strokeWidth=4;entryX=0.427;entryY=-0.036;entryDx=0;entryDy=0;entryPerimeter=0;" parent="6tsjVSAMrTK1Vd30kNC8-1" target="j01ybcQ40wNmj2fIsmN0-9" edge="1">
          <mxGeometry width="50" height="50" relative="1" as="geometry">
            <mxPoint x="454" y="410" as="sourcePoint" />
            <mxPoint x="713" y="513" as="targetPoint" />
            <Array as="points">
              <mxPoint x="713" y="410" />
            </Array>
          </mxGeometry>
        </mxCell>
        <mxCell id="j01ybcQ40wNmj2fIsmN0-44" value="&lt;ol&gt;&lt;li&gt;&lt;b style=&quot;font-size: medium&quot;&gt;wait()&lt;/b&gt;&lt;br&gt;&lt;/li&gt;&lt;li&gt;&lt;font size=&quot;3&quot;&gt;&lt;b&gt;join()&lt;/b&gt;&lt;/font&gt;&lt;/li&gt;&lt;/ol&gt;" style="text;strokeColor=none;fillColor=none;html=1;whiteSpace=wrap;verticalAlign=middle;overflow=hidden;" parent="6tsjVSAMrTK1Vd30kNC8-1" vertex="1">
          <mxGeometry x="570" y="400" width="120" height="70" as="geometry" />
        </mxCell>
        <mxCell id="j01ybcQ40wNmj2fIsmN0-45" value="" style="edgeStyle=segmentEdgeStyle;endArrow=classic;html=1;strokeWidth=4;entryX=0.38;entryY=1.027;entryDx=0;entryDy=0;entryPerimeter=0;strokeColor=#0000FF;" parent="6tsjVSAMrTK1Vd30kNC8-1" edge="1">
          <mxGeometry width="50" height="50" relative="1" as="geometry">
            <mxPoint x="640" y="596" as="sourcePoint" />
            <mxPoint x="390" y="440" as="targetPoint" />
            <Array as="points">
              <mxPoint x="390" y="596.03" />
            </Array>
          </mxGeometry>
        </mxCell>
        <mxCell id="j01ybcQ40wNmj2fIsmN0-46" value="&lt;font style=&quot;font-size: 14px&quot;&gt;&lt;b&gt;1.notify()&lt;br&gt;2.notifyAll()&lt;/b&gt;&lt;/font&gt;" style="text;html=1;strokeColor=none;fillColor=none;align=center;verticalAlign=middle;whiteSpace=wrap;rounded=0;" parent="6tsjVSAMrTK1Vd30kNC8-1" vertex="1">
          <mxGeometry x="410" y="520" width="140" height="70" as="geometry" />
        </mxCell>
        <mxCell id="j01ybcQ40wNmj2fIsmN0-47" value="&lt;font style=&quot;font-size: 14px&quot; color=&quot;#009900&quot;&gt;&lt;b&gt;Thread.start()&lt;/b&gt;&lt;/font&gt;" style="text;html=1;strokeColor=none;fillColor=none;align=center;verticalAlign=middle;whiteSpace=wrap;rounded=0;" parent="6tsjVSAMrTK1Vd30kNC8-1" vertex="1">
          <mxGeometry x="359" y="80" width="110" height="40" as="geometry" />
        </mxCell>
        <mxCell id="j01ybcQ40wNmj2fIsmN0-48" value="&lt;font color=&quot;#009900&quot;&gt;&lt;span style=&quot;font-size: 14px&quot;&gt;&lt;b&gt;执行完成&lt;/b&gt;&lt;/span&gt;&lt;/font&gt;" style="text;html=1;strokeColor=none;fillColor=none;align=center;verticalAlign=middle;whiteSpace=wrap;rounded=0;" parent="6tsjVSAMrTK1Vd30kNC8-1" vertex="1">
          <mxGeometry x="350" y="640" width="110" height="40" as="geometry" />
        </mxCell>
      </root>
    </mxGraphModel>
  </diagram>
  <diagram id="ckOi1ZT1WjsslrgBSWX3" name="第 2 页">
    <mxGraphModel dx="1038" dy="1717" grid="1" gridSize="10" guides="1" tooltips="1" connect="1" arrows="1" fold="1" page="1" pageScale="1" pageWidth="827" pageHeight="1169" math="0" shadow="0">
      <root>
        <mxCell id="wqQajRtnntQnxKMC1KUQ-0" />
        <mxCell id="wqQajRtnntQnxKMC1KUQ-1" parent="wqQajRtnntQnxKMC1KUQ-0" />
        <mxCell id="wqQajRtnntQnxKMC1KUQ-2" value="" style="shape=table;html=1;whiteSpace=wrap;startSize=0;container=1;collapsible=0;childLayout=tableLayout;" vertex="1" parent="wqQajRtnntQnxKMC1KUQ-1">
          <mxGeometry x="80" y="-230" width="176" height="200" as="geometry" />
        </mxCell>
        <mxCell id="wqQajRtnntQnxKMC1KUQ-3" value="" style="shape=partialRectangle;html=1;whiteSpace=wrap;collapsible=0;dropTarget=0;pointerEvents=0;fillColor=none;top=0;left=0;bottom=0;right=0;points=[[0,0.5],[1,0.5]];portConstraint=eastwest;" vertex="1" parent="wqQajRtnntQnxKMC1KUQ-2">
          <mxGeometry width="176" height="40" as="geometry" />
        </mxCell>
        <mxCell id="wqQajRtnntQnxKMC1KUQ-4" value="Thread" style="shape=partialRectangle;html=1;whiteSpace=wrap;connectable=0;overflow=hidden;fillColor=#d5e8d4;top=0;left=0;bottom=0;right=0;strokeColor=#82b366;" vertex="1" parent="wqQajRtnntQnxKMC1KUQ-3">
          <mxGeometry width="59" height="40" as="geometry" />
        </mxCell>
        <mxCell id="wqQajRtnntQnxKMC1KUQ-5" value="Object" style="shape=partialRectangle;html=1;whiteSpace=wrap;connectable=0;overflow=hidden;fillColor=#d5e8d4;top=0;left=0;bottom=0;right=0;strokeColor=#82b366;" vertex="1" parent="wqQajRtnntQnxKMC1KUQ-3">
          <mxGeometry x="59" width="58" height="40" as="geometry" />
        </mxCell>
        <mxCell id="wqQajRtnntQnxKMC1KUQ-6" value="" style="shape=partialRectangle;html=1;whiteSpace=wrap;connectable=0;overflow=hidden;fillColor=none;top=0;left=0;bottom=0;right=0;" vertex="1" parent="wqQajRtnntQnxKMC1KUQ-3">
          <mxGeometry x="117" width="59" height="40" as="geometry" />
        </mxCell>
        <mxCell id="wqQajRtnntQnxKMC1KUQ-7" value="" style="shape=partialRectangle;html=1;whiteSpace=wrap;collapsible=0;dropTarget=0;pointerEvents=0;fillColor=none;top=0;left=0;bottom=0;right=0;points=[[0,0.5],[1,0.5]];portConstraint=eastwest;" vertex="1" parent="wqQajRtnntQnxKMC1KUQ-2">
          <mxGeometry y="40" width="176" height="40" as="geometry" />
        </mxCell>
        <mxCell id="wqQajRtnntQnxKMC1KUQ-8" value="sleep" style="shape=partialRectangle;html=1;whiteSpace=wrap;connectable=0;overflow=hidden;fillColor=#f8cecc;top=0;left=0;bottom=0;right=0;strokeColor=#b85450;" vertex="1" parent="wqQajRtnntQnxKMC1KUQ-7">
          <mxGeometry width="59" height="40" as="geometry" />
        </mxCell>
        <mxCell id="wqQajRtnntQnxKMC1KUQ-9" value="wait" style="shape=partialRectangle;html=1;whiteSpace=wrap;connectable=0;overflow=hidden;fillColor=#e1d5e7;top=0;left=0;bottom=0;right=0;strokeColor=#9673a6;" vertex="1" parent="wqQajRtnntQnxKMC1KUQ-7">
          <mxGeometry x="59" width="58" height="40" as="geometry" />
        </mxCell>
        <mxCell id="wqQajRtnntQnxKMC1KUQ-10" value="" style="shape=partialRectangle;html=1;whiteSpace=wrap;connectable=0;overflow=hidden;fillColor=none;top=0;left=0;bottom=0;right=0;" vertex="1" parent="wqQajRtnntQnxKMC1KUQ-7">
          <mxGeometry x="117" width="59" height="40" as="geometry" />
        </mxCell>
        <mxCell id="wqQajRtnntQnxKMC1KUQ-11" value="" style="shape=partialRectangle;html=1;whiteSpace=wrap;collapsible=0;dropTarget=0;pointerEvents=0;fillColor=none;top=0;left=0;bottom=0;right=0;points=[[0,0.5],[1,0.5]];portConstraint=eastwest;" vertex="1" parent="wqQajRtnntQnxKMC1KUQ-2">
          <mxGeometry y="80" width="176" height="40" as="geometry" />
        </mxCell>
        <mxCell id="wqQajRtnntQnxKMC1KUQ-12" value="join" style="shape=partialRectangle;html=1;whiteSpace=wrap;connectable=0;overflow=hidden;fillColor=#f8cecc;top=0;left=0;bottom=0;right=0;strokeColor=#b85450;" vertex="1" parent="wqQajRtnntQnxKMC1KUQ-11">
          <mxGeometry width="59" height="40" as="geometry" />
        </mxCell>
        <mxCell id="wqQajRtnntQnxKMC1KUQ-13" value="notify" style="shape=partialRectangle;html=1;whiteSpace=wrap;connectable=0;overflow=hidden;fillColor=#e1d5e7;top=0;left=0;bottom=0;right=0;strokeColor=#9673a6;" vertex="1" parent="wqQajRtnntQnxKMC1KUQ-11">
          <mxGeometry x="59" width="58" height="40" as="geometry" />
        </mxCell>
        <mxCell id="wqQajRtnntQnxKMC1KUQ-14" value="" style="shape=partialRectangle;html=1;whiteSpace=wrap;connectable=0;overflow=hidden;fillColor=none;top=0;left=0;bottom=0;right=0;" vertex="1" parent="wqQajRtnntQnxKMC1KUQ-11">
          <mxGeometry x="117" width="59" height="40" as="geometry" />
        </mxCell>
        <mxCell id="wqQajRtnntQnxKMC1KUQ-15" value="" style="shape=partialRectangle;html=1;whiteSpace=wrap;collapsible=0;dropTarget=0;pointerEvents=0;fillColor=none;top=0;left=0;bottom=0;right=0;points=[[0,0.5],[1,0.5]];portConstraint=eastwest;" vertex="1" parent="wqQajRtnntQnxKMC1KUQ-2">
          <mxGeometry y="120" width="176" height="40" as="geometry" />
        </mxCell>
        <mxCell id="wqQajRtnntQnxKMC1KUQ-16" value="yield" style="shape=partialRectangle;html=1;whiteSpace=wrap;connectable=0;overflow=hidden;fillColor=#f8cecc;top=0;left=0;bottom=0;right=0;strokeColor=#b85450;" vertex="1" parent="wqQajRtnntQnxKMC1KUQ-15">
          <mxGeometry width="59" height="40" as="geometry" />
        </mxCell>
        <mxCell id="wqQajRtnntQnxKMC1KUQ-17" value="notifyAll" style="shape=partialRectangle;html=1;whiteSpace=wrap;connectable=0;overflow=hidden;fillColor=#e1d5e7;top=0;left=0;bottom=0;right=0;strokeColor=#9673a6;" vertex="1" parent="wqQajRtnntQnxKMC1KUQ-15">
          <mxGeometry x="59" width="58" height="40" as="geometry" />
        </mxCell>
        <mxCell id="wqQajRtnntQnxKMC1KUQ-18" value="" style="shape=partialRectangle;html=1;whiteSpace=wrap;connectable=0;overflow=hidden;fillColor=none;top=0;left=0;bottom=0;right=0;" vertex="1" parent="wqQajRtnntQnxKMC1KUQ-15">
          <mxGeometry x="117" width="59" height="40" as="geometry" />
        </mxCell>
        <mxCell id="wqQajRtnntQnxKMC1KUQ-19" value="" style="shape=partialRectangle;html=1;whiteSpace=wrap;collapsible=0;dropTarget=0;pointerEvents=0;fillColor=none;top=0;left=0;bottom=0;right=0;points=[[0,0.5],[1,0.5]];portConstraint=eastwest;" vertex="1" parent="wqQajRtnntQnxKMC1KUQ-2">
          <mxGeometry y="160" width="176" height="40" as="geometry" />
        </mxCell>
        <mxCell id="wqQajRtnntQnxKMC1KUQ-20" value="" style="shape=partialRectangle;html=1;whiteSpace=wrap;connectable=0;overflow=hidden;fillColor=none;top=0;left=0;bottom=0;right=0;" vertex="1" parent="wqQajRtnntQnxKMC1KUQ-19">
          <mxGeometry width="59" height="40" as="geometry" />
        </mxCell>
        <mxCell id="wqQajRtnntQnxKMC1KUQ-21" value="" style="shape=partialRectangle;html=1;whiteSpace=wrap;connectable=0;overflow=hidden;fillColor=none;top=0;left=0;bottom=0;right=0;" vertex="1" parent="wqQajRtnntQnxKMC1KUQ-19">
          <mxGeometry x="59" width="58" height="40" as="geometry" />
        </mxCell>
        <mxCell id="wqQajRtnntQnxKMC1KUQ-22" value="" style="shape=partialRectangle;html=1;whiteSpace=wrap;connectable=0;overflow=hidden;fillColor=none;top=0;left=0;bottom=0;right=0;" vertex="1" parent="wqQajRtnntQnxKMC1KUQ-19">
          <mxGeometry x="117" width="59" height="40" as="geometry" />
        </mxCell>
      </root>
    </mxGraphModel>
  </diagram>
</mxfile>
